<svg xmlns="http://www.w3.org/2000/svg" width="960" height="940" viewBox="0 0 960 940" style="background-color: #FDF6E3; font-family: 'Arial', sans-serif;">
                <defs>
                   <style>
                        .title { font-size: 28px; font-weight: bold; text-anchor: middle; fill: #000000; }
                        .composer { font-size: 18px; text-anchor: end; fill: #000000; }
                        .style { font-size: 18px; text-anchor: start; fill: #000000; }
                        .chord-root { font-size: 32px; font-weight: bold; fill: #000000; letter-spacing: -1px; }
                        .chord-suffix { font-size: 18px; font-weight: bold; fill: #000000; }
                        .chord-bass { font-size: 22px; font-weight: bold; fill: #000000; }
                        .nc { font-size: 24px; font-weight: bold; fill: #000000; }
                        .time-sig { font-size: 24px; font-weight: bold; text-anchor: middle; letter-spacing: -2px; }
                   </style>
                </defs>
                <g class="header" transform="translate(0, 45)">
                    <text x="480" class="title">Blues - Jazz 1</text>
                    <text x="920" class="composer">Exercise</text>
                    <text x="40" class="style">Medium Up Swing</text>
                </g>
                <g transform="translate(40, 80)">
            <g class="system" transform="translate(0, 0)"><g class="measure" transform="translate(0, 0)"><g class="cell" transform="translate(0, 0)"><line x1="0" y1="0" x2="0" y2="140" stroke="black" stroke-width="6" stroke-linecap="butt"/><line x1="6" y1="0" x2="6" y2="140" stroke="black" stroke-width="2" stroke-linecap="butt"/><text x="15" y="70" class="time-sig">4</text><text x="15" y="100" class="time-sig">4</text><text x="5" y="85"><tspan class="chord-root">F</tspan><tspan class="chord-suffix" dy="-15">7</tspan></text></g><g class="cell" transform="translate(55, 0)"></g><g class="cell" transform="translate(110, 0)"></g><g class="cell" transform="translate(165, 0)"></g></g><g class="measure" transform="translate(220, 0)"><g class="cell" transform="translate(0, 0)"><line x1="0" y1="0" x2="0" y2="140" stroke="black" stroke-width="2" stroke-linecap="butt"/><text x="5" y="85"><tspan class="chord-root">B♭</tspan><tspan class="chord-suffix" dy="-15">7</tspan></text></g><g class="cell" transform="translate(55, 0)"></g><g class="cell" transform="translate(110, 0)"></g><g class="cell" transform="translate(165, 0)"></g></g><g class="measure" transform="translate(440, 0)"><g class="cell" transform="translate(0, 0)"><line x1="0" y1="0" x2="0" y2="140" stroke="black" stroke-width="2" stroke-linecap="butt"/><text x="5" y="85"><tspan class="chord-root">F</tspan><tspan class="chord-suffix" dy="-15">7</tspan></text></g><g class="cell" transform="translate(55, 0)"></g><g class="cell" transform="translate(110, 0)"></g><g class="cell" transform="translate(165, 0)"></g></g><g class="measure" transform="translate(660, 0)"><g class="cell" transform="translate(0, 0)"><line x1="0" y1="0" x2="0" y2="140" stroke="black" stroke-width="2" stroke-linecap="butt"/><text x="5" y="85"><tspan class="chord-root">C</tspan><tspan class="chord-suffix" dy="-15">-7</tspan></text></g><g class="cell" transform="translate(55, 0)"></g><g class="cell" transform="translate(110, 0)"><text x="5" y="85"><tspan class="chord-root">F</tspan><tspan class="chord-suffix" dy="-15">7</tspan></text></g><g class="cell" transform="translate(165, 0)"></g></g><g class="end-bar" transform="translate(880, 0)"><line x1="0" y1="0" x2="0" y2="140" stroke="black" stroke-width="2" stroke-linecap="butt"/></g></g><g class="system" transform="translate(0, 200)"><g class="measure" transform="translate(0, 0)"><g class="cell" transform="translate(0, 0)"><text x="5" y="85"><tspan class="chord-root">B♭</tspan><tspan class="chord-suffix" dy="-15">7</tspan></text></g><g class="cell" transform="translate(55, 0)"></g><g class="cell" transform="translate(110, 0)"></g><g class="cell" transform="translate(165, 0)"></g></g><g class="measure" transform="translate(220, 0)"><g class="cell" transform="translate(0, 0)"><line x1="0" y1="0" x2="0" y2="140" stroke="black" stroke-width="2" stroke-linecap="butt"/><text x="5" y="85"><tspan class="chord-root">B</tspan><tspan class="chord-suffix" dy="-15">°7</tspan></text></g><g class="cell" transform="translate(55, 0)"></g><g class="cell" transform="translate(110, 0)"></g><g class="cell" transform="translate(165, 0)"></g></g><g class="measure" transform="translate(440, 0)"><g class="cell" transform="translate(0, 0)"><line x1="0" y1="0" x2="0" y2="140" stroke="black" stroke-width="2" stroke-linecap="butt"/><text x="5" y="85"><tspan class="chord-root">F</tspan><tspan class="chord-suffix" dy="-15">7</tspan></text></g><g class="cell" transform="translate(55, 0)"></g><g class="cell" transform="translate(110, 0)"></g><g class="cell" transform="translate(165, 0)"></g></g><g class="measure" transform="translate(660, 0)"><g class="cell" transform="translate(0, 0)"><line x1="0" y1="0" x2="0" y2="140" stroke="black" stroke-width="2" stroke-linecap="butt"/><text x="5" y="85"><tspan class="chord-root">A</tspan><tspan class="chord-suffix" dy="-15">-7</tspan></text></g><g class="cell" transform="translate(55, 0)"></g><g class="cell" transform="translate(110, 0)"><text x="5" y="85"><tspan class="chord-root">D</tspan><tspan class="chord-suffix" dy="-15">7</tspan></text></g><g class="cell" transform="translate(165, 0)"></g></g><g class="end-bar" transform="translate(880, 0)"><line x1="0" y1="0" x2="0" y2="140" stroke="black" stroke-width="2" stroke-linecap="butt"/></g></g><g class="system" transform="translate(0, 400)"><g class="measure" transform="translate(0, 0)"><g class="cell" transform="translate(0, 0)"><text x="5" y="85"><tspan class="chord-root">G</tspan><tspan class="chord-suffix" dy="-15">-7</tspan></text></g><g class="cell" transform="translate(55, 0)"></g><g class="cell" transform="translate(110, 0)"></g><g class="cell" transform="translate(165, 0)"></g></g><g class="measure" transform="translate(220, 0)"><g class="cell" transform="translate(0, 0)"><line x1="0" y1="0" x2="0" y2="140" stroke="black" stroke-width="2" stroke-linecap="butt"/><text x="5" y="85"><tspan class="chord-root">C</tspan><tspan class="chord-suffix" dy="-15">7</tspan></text></g><g class="cell" transform="translate(55, 0)"></g><g class="cell" transform="translate(110, 0)"></g><g class="cell" transform="translate(165, 0)"></g></g><g class="measure" transform="translate(440, 0)"><g class="cell" transform="translate(0, 0)"><line x1="0" y1="0" x2="0" y2="140" stroke="black" stroke-width="2" stroke-linecap="butt"/><text x="5" y="85"><tspan class="chord-root">F</tspan><tspan class="chord-suffix" dy="-15">7</tspan></text></g><g class="cell" transform="translate(55, 0)"></g><g class="cell" transform="translate(110, 0)"><text x="5" y="85"><tspan class="chord-root">D</tspan><tspan class="chord-suffix" dy="-15">7</tspan></text></g><g class="cell" transform="translate(165, 0)"></g></g><g class="measure" transform="translate(660, 0)"><g class="cell" transform="translate(0, 0)"><line x1="0" y1="0" x2="0" y2="140" stroke="black" stroke-width="2" stroke-linecap="butt"/><text x="5" y="85"><tspan class="chord-root">G</tspan><tspan class="chord-suffix" dy="-15">-7</tspan></text></g><g class="cell" transform="translate(55, 0)"></g><g class="cell" transform="translate(110, 0)"><text x="5" y="85"><tspan class="chord-root">C</tspan><tspan class="chord-suffix" dy="-15">7</tspan></text></g><g class="cell" transform="translate(165, 0)"></g></g><g class="end-bar" transform="translate(880, 0)"><line x1="-6" y1="0" x2="-6" y2="140" stroke="black" stroke-width="2" stroke-linecap="butt"/><line x1="0" y1="0" x2="0" y2="140" stroke="black" stroke-width="6" stroke-linecap="butt"/></g></g><g class="system" transform="translate(0, 600)"><g class="measure" transform="translate(0, 0)"><g class="cell" transform="translate(0, 0)"></g><g class="cell" transform="translate(55, 0)"></g><g class="cell" transform="translate(110, 0)"></g><g class="cell" transform="translate(165, 0)"></g></g><g class="measure" transform="translate(220, 0)"><g class="cell" transform="translate(0, 0)"></g><g class="cell" transform="translate(55, 0)"></g><g class="cell" transform="translate(110, 0)"></g><g class="cell" transform="translate(165, 0)"></g></g><g class="measure" transform="translate(440, 0)"><g class="cell" transform="translate(0, 0)"></g><g class="cell" transform="translate(55, 0)"></g><g class="cell" transform="translate(110, 0)"></g><g class="cell" transform="translate(165, 0)"></g></g><g class="measure" transform="translate(660, 0)"><g class="cell" transform="translate(0, 0)"></g><g class="cell" transform="translate(55, 0)"></g><g class="cell" transform="translate(110, 0)"></g><g class="cell" transform="translate(165, 0)"></g></g></g></g></svg>