<svg xmlns="http://www.w3.org/2000/svg" width="960" height="1540" viewBox="0 0 960 1540" style="background-color: #FDF6E3; font-family: 'Arial', sans-serif;">
                <defs>
                   <style>
                        .title { font-size: 28px; font-weight: bold; text-anchor: middle; fill: #000000; }
                        .composer { font-size: 18px; text-anchor: end; fill: #000000; }
                        .style { font-size: 18px; text-anchor: start; fill: #000000; }
                        .chord-root { font-size: 32px; font-weight: bold; fill: #000000; letter-spacing: -1px; }
                        .chord-suffix { font-size: 18px; font-weight: bold; fill: #000000; }
                        .chord-bass { font-size: 22px; font-weight: bold; fill: #000000; }
                        .nc { font-size: 24px; font-weight: bold; fill: #000000; }
                        .time-sig { font-size: 24px; font-weight: bold; text-anchor: middle; letter-spacing: -2px; }
                   </style>
                </defs>
                
                <!-- HEADER -->
                <g class="header" transform="translate(0, 45)">
                    <text x="480" class="title">A Walkin Thing</text>
                    <text x="920" class="composer">Carter Benny</text>
                    <text x="40" class="style">Medium Swing</text>
                </g>
                
                <!-- CONTENT -->
                <g transform="translate(40, 80)">
            <g class="system" transform="translate(0, 0)"><g class="cell" transform="translate(0, 0)"><line x1="0" y1="0" x2="0" y2="140" stroke="black" stroke-width="6"/><line x1="5" y1="0" x2="5" y2="140" stroke="black" stroke-width="2"/><circle cx="12" cy="60" r="3" fill="black"/><circle cx="12" cy="80" r="3" fill="black"/><rect x="-5" y="-25" width="24" height="24" fill="black"/><text x="7" y="-8" fill="white" font-weight="bold" font-size="18" text-anchor="middle">A</text><text x="15" y="70" class="time-sig">4</text><text x="15" y="100" class="time-sig">4</text><text x="5" y="85"><tspan class="chord-root">D</tspan><tspan class="chord-suffix" dy="-15">-</tspan></text></g><g class="cell" transform="translate(55, 0)"></g><g class="cell" transform="translate(110, 0)"><text x="5" y="85"><tspan class="chord-root">D</tspan><tspan class="chord-suffix" dy="-15">-</tspan><tspan class="chord-bass" dy="15">/C</tspan></text></g><g class="cell" transform="translate(165, 0)"></g><g class="cell" transform="translate(220, 0)"><line x1="0" y1="0" x2="0" y2="140" stroke="black" stroke-width="2"/><text x="5" y="85"><tspan class="chord-root">B</tspan><tspan class="chord-suffix" dy="-15">ø7</tspan></text></g><g class="cell" transform="translate(275, 0)"></g><g class="cell" transform="translate(330, 0)"><text x="5" y="85"><tspan class="chord-root">B♭</tspan><tspan class="chord-suffix" dy="-15">7</tspan></text><text x="5" y="50" style="font-size: 14px; fill: #666; font-weight: bold;">A7♭9</text></g><g class="cell" transform="translate(385, 0)"></g><g class="cell" transform="translate(440, 0)"><line x1="0" y1="0" x2="0" y2="140" stroke="black" stroke-width="2"/><text x="5" y="85"><tspan class="chord-root">D</tspan><tspan class="chord-suffix" dy="-15">-</tspan><tspan class="chord-bass" dy="15">/A</tspan></text></g><g class="cell" transform="translate(495, 0)"></g><g class="cell" transform="translate(550, 0)"><text x="5" y="85"><tspan class="chord-root">G</tspan><tspan class="chord-suffix" dy="-15">-7</tspan></text></g><g class="cell" transform="translate(605, 0)"></g><g class="cell" transform="translate(660, 0)"><line x1="0" y1="0" x2="0" y2="140" stroke="black" stroke-width="2"/><text x="5" y="85"><tspan class="chord-root">D</tspan><tspan class="chord-suffix" dy="-15">-</tspan><tspan class="chord-bass" dy="15">/F</tspan></text></g><g class="cell" transform="translate(715, 0)"></g><g class="cell" transform="translate(770, 0)"><text x="5" y="85"><tspan class="chord-root">E</tspan><tspan class="chord-suffix" dy="-15">ø</tspan></text></g><g class="cell" transform="translate(825, 0)"><text x="5" y="85"><tspan class="chord-root">A</tspan><tspan class="chord-suffix" dy="-15">7</tspan></text></g><g class="end-bar" transform="translate(880, 0)"><line x1="0" y1="0" x2="0" y2="140" stroke="black" stroke-width="2"/></g></g><g class="system" transform="translate(0, 200)"><g class="cell" transform="translate(0, 0)"><line x1="0" y1="0" x2="0" y2="140" stroke="black" stroke-width="2"/><text x="5" y="85"><tspan class="chord-root">D</tspan><tspan class="chord-suffix" dy="-15">-</tspan></text></g><g class="cell" transform="translate(55, 0)"></g><g class="cell" transform="translate(110, 0)"><text x="5" y="85"><tspan class="chord-root">D</tspan><tspan class="chord-suffix" dy="-15">-</tspan><tspan class="chord-bass" dy="15">/C</tspan></text></g><g class="cell" transform="translate(165, 0)"></g><g class="cell" transform="translate(220, 0)"><line x1="0" y1="0" x2="0" y2="140" stroke="black" stroke-width="2"/><text x="5" y="85"><tspan class="chord-root">B</tspan><tspan class="chord-suffix" dy="-15">ø7</tspan></text></g><g class="cell" transform="translate(275, 0)"></g><g class="cell" transform="translate(330, 0)"><text x="5" y="85"><tspan class="chord-root">B♭</tspan><tspan class="chord-suffix" dy="-15">7</tspan></text><text x="5" y="50" style="font-size: 14px; fill: #666; font-weight: bold;">A7♭9</text></g><g class="cell" transform="translate(385, 0)"></g><g class="cell" transform="translate(440, 0)"><line x1="0" y1="0" x2="0" y2="140" stroke="black" stroke-width="2"/><text x="5" y="85"><tspan class="chord-root">D</tspan><tspan class="chord-suffix" dy="-15">-</tspan><tspan class="chord-bass" dy="15">/A</tspan></text></g><g class="cell" transform="translate(495, 0)"></g><g class="cell" transform="translate(550, 0)"><text x="5" y="85"><tspan class="chord-root">G</tspan><tspan class="chord-suffix" dy="-15">-7</tspan></text></g><g class="cell" transform="translate(605, 0)"></g><g class="cell" transform="translate(660, 0)"><line x1="0" y1="0" x2="0" y2="140" stroke="black" stroke-width="2"/><polyline points="0,15 0,0 220,0" fill="none" stroke="black" stroke-width="2"/><text x="5" y="12" font-size="12" font-weight="bold">1.</text><text x="5" y="85"><tspan class="chord-root">D</tspan><tspan class="chord-suffix" dy="-15">-</tspan><tspan class="chord-bass" dy="15">/F</tspan></text></g><g class="cell" transform="translate(715, 0)"></g><g class="cell" transform="translate(770, 0)"><text x="5" y="85"><tspan class="chord-root">E</tspan><tspan class="chord-suffix" dy="-15">ø</tspan></text></g><g class="cell" transform="translate(825, 0)"><text x="5" y="85"><tspan class="chord-root">A</tspan><tspan class="chord-suffix" dy="-15">7</tspan></text></g></g><g class="system" transform="translate(0, 400)"><g class="cell" transform="translate(0, 0)"><text x="5" y="85"><tspan class="chord-root">}</tspan></text></g><g class="cell" transform="translate(55, 0)"></g><g class="cell" transform="translate(110, 0)"></g><g class="cell" transform="translate(165, 0)"></g><g class="cell" transform="translate(220, 0)"></g><g class="cell" transform="translate(275, 0)"></g><g class="cell" transform="translate(330, 0)"></g><g class="cell" transform="translate(385, 0)"></g><g class="cell" transform="translate(440, 0)"></g><g class="cell" transform="translate(495, 0)"></g><g class="cell" transform="translate(550, 0)"></g><g class="cell" transform="translate(605, 0)"></g><g class="cell" transform="translate(660, 0)"></g><g class="cell" transform="translate(715, 0)"></g><g class="cell" transform="translate(770, 0)"></g><g class="cell" transform="translate(825, 0)"></g></g><g class="system" transform="translate(0, 600)"><g class="cell" transform="translate(0, 0)"><line x1="0" y1="0" x2="0" y2="140" stroke="black" stroke-width="2"/><polyline points="0,15 0,0 220,0" fill="none" stroke="black" stroke-width="2"/><text x="5" y="12" font-size="12" font-weight="bold">2.</text><text x="5" y="85"><tspan class="chord-root">D</tspan><tspan class="chord-suffix" dy="-15">-</tspan></text></g><g class="cell" transform="translate(55, 0)"><text x="5" y="85"><tspan class="chord-root">G</tspan><tspan class="chord-suffix" dy="-15">-</tspan></text></g><g class="cell" transform="translate(110, 0)"><text x="5" y="85"><tspan class="chord-root">D</tspan><tspan class="chord-suffix" dy="-15">-</tspan></text></g><g class="cell" transform="translate(165, 0)"></g><g class="cell" transform="translate(220, 0)"><line x1="-5" y1="0" x2="-5" y2="140" stroke="black" stroke-width="2"/><line x1="0" y1="0" x2="0" y2="140" stroke="black" stroke-width="6"/><line x1="0" y1="0" x2="0" y2="140" stroke="black" stroke-width="6"/><line x1="5" y1="0" x2="5" y2="140" stroke="black" stroke-width="2"/><rect x="-5" y="-25" width="24" height="24" fill="black"/><text x="7" y="-8" fill="white" font-weight="bold" font-size="18" text-anchor="middle">B</text><text x="5" y="85"><tspan class="chord-root">C</tspan><tspan class="chord-suffix" dy="-15">-7</tspan></text></g><g class="cell" transform="translate(275, 0)"></g><g class="cell" transform="translate(330, 0)"><text x="5" y="85"><tspan class="chord-root">F</tspan><tspan class="chord-suffix" dy="-15">7</tspan></text></g><g class="cell" transform="translate(385, 0)"></g><g class="cell" transform="translate(440, 0)"><line x1="0" y1="0" x2="0" y2="140" stroke="black" stroke-width="2"/><text x="5" y="85"><tspan class="chord-root">B♭</tspan><tspan class="chord-suffix" dy="-15">Δ7</tspan></text></g><g class="cell" transform="translate(495, 0)"></g><g class="cell" transform="translate(550, 0)"><line x1="0" y1="0" x2="0" y2="140" stroke="black" stroke-width="2"/><text x="5" y="85"><tspan class="chord-root">C</tspan><tspan class="chord-suffix" dy="-15">-7</tspan></text></g><g class="cell" transform="translate(605, 0)"></g><g class="cell" transform="translate(660, 0)"><text x="5" y="85"><tspan class="chord-root">F</tspan><tspan class="chord-suffix" dy="-15">7</tspan></text></g><g class="cell" transform="translate(715, 0)"></g><g class="cell" transform="translate(770, 0)"><line x1="0" y1="0" x2="0" y2="140" stroke="black" stroke-width="2"/><text x="5" y="85"><tspan class="chord-root">B♭</tspan><tspan class="chord-suffix" dy="-15">Δ7</tspan></text></g><g class="cell" transform="translate(825, 0)"></g></g><g class="system" transform="translate(0, 800)"><g class="cell" transform="translate(0, 0)"><text x="5" y="85" class="nc">N.C.</text></g><g class="cell" transform="translate(55, 0)"></g><g class="cell" transform="translate(110, 0)"><line x1="0" y1="0" x2="0" y2="140" stroke="black" stroke-width="2"/><line x1="0" y1="0" x2="0" y2="140" stroke="black" stroke-width="2"/><text x="5" y="85"><tspan class="chord-root">C</tspan><tspan class="chord-suffix" dy="-15">-7</tspan></text></g><g class="cell" transform="translate(165, 0)"></g><g class="cell" transform="translate(220, 0)"><text x="5" y="85"><tspan class="chord-root">F</tspan><tspan class="chord-suffix" dy="-15">7</tspan></text></g><g class="cell" transform="translate(275, 0)"></g><g class="cell" transform="translate(330, 0)"><line x1="0" y1="0" x2="0" y2="140" stroke="black" stroke-width="2"/><text x="5" y="85"><tspan class="chord-root">B♭</tspan><tspan class="chord-suffix" dy="-15">Δ7</tspan></text></g><g class="cell" transform="translate(385, 0)"></g><g class="cell" transform="translate(440, 0)"><line x1="0" y1="0" x2="0" y2="140" stroke="black" stroke-width="2"/><text x="5" y="85"><tspan class="chord-root">B</tspan><tspan class="chord-suffix" dy="-15">-7</tspan></text></g><g class="cell" transform="translate(495, 0)"></g><g class="cell" transform="translate(550, 0)"><text x="5" y="85"><tspan class="chord-root">E</tspan><tspan class="chord-suffix" dy="-15">7</tspan></text></g><g class="cell" transform="translate(605, 0)"></g><g class="cell" transform="translate(660, 0)"><line x1="0" y1="0" x2="0" y2="140" stroke="black" stroke-width="2"/><text x="5" y="85"><tspan class="chord-root">A</tspan><tspan class="chord-suffix" dy="-15">7</tspan></text></g><g class="cell" transform="translate(715, 0)"><text x="5" y="85"><tspan class="chord-root">p</tspan></text></g><g class="cell" transform="translate(770, 0)"><text x="5" y="85"><tspan class="chord-root">p</tspan></text></g><g class="cell" transform="translate(825, 0)"><text x="5" y="85"><tspan class="chord-root">p</tspan></text></g><g class="end-bar" transform="translate(880, 0)"><line x1="-5" y1="0" x2="-5" y2="140" stroke="black" stroke-width="2"/><line x1="0" y1="0" x2="0" y2="140" stroke="black" stroke-width="6"/><line x1="0" y1="0" x2="0" y2="140" stroke="black" stroke-width="6"/><line x1="5" y1="0" x2="5" y2="140" stroke="black" stroke-width="2"/><rect x="-5" y="-25" width="24" height="24" fill="black"/><text x="7" y="-8" fill="white" font-weight="bold" font-size="18" text-anchor="middle">A</text></g></g><g class="system" transform="translate(0, 1000)"><g class="cell" transform="translate(0, 0)"><text x="5" y="85"><tspan class="chord-root">D</tspan><tspan class="chord-suffix" dy="-15">-</tspan></text></g><g class="cell" transform="translate(55, 0)"></g><g class="cell" transform="translate(110, 0)"><text x="5" y="85"><tspan class="chord-root">D</tspan><tspan class="chord-suffix" dy="-15">-</tspan><tspan class="chord-bass" dy="15">/C</tspan></text></g><g class="cell" transform="translate(165, 0)"></g><g class="cell" transform="translate(220, 0)"><line x1="0" y1="0" x2="0" y2="140" stroke="black" stroke-width="2"/><text x="5" y="85"><tspan class="chord-root">B</tspan><tspan class="chord-suffix" dy="-15">ø7</tspan></text></g><g class="cell" transform="translate(275, 0)"></g><g class="cell" transform="translate(330, 0)"><text x="5" y="85"><tspan class="chord-root">B♭</tspan><tspan class="chord-suffix" dy="-15">7</tspan></text><text x="5" y="50" style="font-size: 14px; fill: #666; font-weight: bold;">A7♭9</text></g><g class="cell" transform="translate(385, 0)"></g><g class="cell" transform="translate(440, 0)"><line x1="0" y1="0" x2="0" y2="140" stroke="black" stroke-width="2"/><text x="5" y="85"><tspan class="chord-root">D</tspan><tspan class="chord-suffix" dy="-15">-</tspan><tspan class="chord-bass" dy="15">/A</tspan></text></g><g class="cell" transform="translate(495, 0)"></g><g class="cell" transform="translate(550, 0)"><text x="5" y="85"><tspan class="chord-root">G</tspan><tspan class="chord-suffix" dy="-15">-7</tspan></text></g><g class="cell" transform="translate(605, 0)"></g><g class="cell" transform="translate(660, 0)"><line x1="0" y1="0" x2="0" y2="140" stroke="black" stroke-width="2"/><text x="5" y="85"><tspan class="chord-root">D</tspan><tspan class="chord-suffix" dy="-15">-</tspan><tspan class="chord-bass" dy="15">/F</tspan></text></g><g class="cell" transform="translate(715, 0)"></g><g class="cell" transform="translate(770, 0)"><text x="5" y="85"><tspan class="chord-root">E</tspan><tspan class="chord-suffix" dy="-15">ø</tspan></text></g><g class="cell" transform="translate(825, 0)"><text x="5" y="85"><tspan class="chord-root">A</tspan><tspan class="chord-suffix" dy="-15">7</tspan></text></g><g class="end-bar" transform="translate(880, 0)"><line x1="0" y1="0" x2="0" y2="140" stroke="black" stroke-width="2"/><line x1="0" y1="0" x2="0" y2="140" stroke="black" stroke-width="2"/></g></g><g class="system" transform="translate(0, 1200)"><g class="cell" transform="translate(0, 0)"><text x="5" y="85"><tspan class="chord-root">D</tspan><tspan class="chord-suffix" dy="-15">-</tspan></text></g><g class="cell" transform="translate(55, 0)"></g><g class="cell" transform="translate(110, 0)"><text x="5" y="85"><tspan class="chord-root">D</tspan><tspan class="chord-suffix" dy="-15">-</tspan><tspan class="chord-bass" dy="15">/C</tspan></text></g><g class="cell" transform="translate(165, 0)"></g><g class="cell" transform="translate(220, 0)"><line x1="0" y1="0" x2="0" y2="140" stroke="black" stroke-width="2"/><text x="5" y="85"><tspan class="chord-root">B</tspan><tspan class="chord-suffix" dy="-15">ø7</tspan></text></g><g class="cell" transform="translate(275, 0)"></g><g class="cell" transform="translate(330, 0)"><text x="5" y="85"><tspan class="chord-root">B♭</tspan><tspan class="chord-suffix" dy="-15">7</tspan></text><text x="5" y="50" style="font-size: 14px; fill: #666; font-weight: bold;">A7♭9</text></g><g class="cell" transform="translate(385, 0)"></g><g class="cell" transform="translate(440, 0)"><line x1="0" y1="0" x2="0" y2="140" stroke="black" stroke-width="2"/><text x="5" y="85"><tspan class="chord-root">D</tspan><tspan class="chord-suffix" dy="-15">-</tspan><tspan class="chord-bass" dy="15">/A</tspan></text></g><g class="cell" transform="translate(495, 0)"></g><g class="cell" transform="translate(550, 0)"><text x="5" y="85"><tspan class="chord-root">G</tspan><tspan class="chord-suffix" dy="-15">-7</tspan></text></g><g class="cell" transform="translate(605, 0)"></g><g class="cell" transform="translate(660, 0)"><line x1="0" y1="0" x2="0" y2="140" stroke="black" stroke-width="2"/><text x="5" y="85"><tspan class="chord-root">D</tspan><tspan class="chord-suffix" dy="-15">-</tspan><tspan class="chord-bass" dy="15">/F</tspan></text></g><g class="cell" transform="translate(715, 0)"></g><g class="cell" transform="translate(770, 0)"><text x="5" y="85"><tspan class="chord-root">E</tspan><tspan class="chord-suffix" dy="-15">ø</tspan></text></g><g class="cell" transform="translate(825, 0)"><text x="5" y="85"><tspan class="chord-root">A</tspan><tspan class="chord-suffix" dy="-15">7</tspan></text></g><g class="end-bar" transform="translate(880, 0)"><line x1="-5" y1="0" x2="-5" y2="140" stroke="black" stroke-width="2"/><line x1="0" y1="0" x2="0" y2="140" stroke="black" stroke-width="6"/></g></g></g></svg>