<svg xmlns="http://www.w3.org/2000/svg" width="960" height="1980" viewBox="0 0 960 1980" style="background-color: #FDF6E3; font-family: 'Arial', sans-serif;">
                <defs>
                    <style>
                        .title { font-size: 28px; font-weight: bold; text-anchor: middle; fill: #000000; }
                        .composer { font-size: 18px; text-anchor: end; fill: #000000; }
                        .style { font-size: 18px; text-anchor: start; fill: #000000; }
                        .chord-root { font-size: 32px; font-weight: bold; fill: #000000; letter-spacing: -1px; }
                        .chord-suffix { font-size: 18px; font-weight: bold; fill: #000000; baseline-shift: super; }
                        .chord-bass { font-size: 22px; font-weight: bold; fill: #000000; }
                        .nc { font-size: 24px; font-weight: bold; fill: #000000; }
                        .rehearsal-box { fill: #000; }
                        .rehearsal-text { fill: #fff; font-weight: bold; font-size: 18px; text-anchor: middle; dominant-baseline: middle; }
                        .time-sig { font-size: 24px; font-weight: bold; text-anchor: middle; letter-spacing: -2px; }
                    </style>
                </defs>
                
                <!-- Header -->
                <text x="480" y="45" class="title">A Walkin Thing</text>
                <text x="920" y="45" class="composer">Carter Benny</text>
                <text x="40" y="45" class="style">Medium Swing</text>
            <line x1="40" y1="80" x2="40" y2="220" stroke="black" stroke-width="6"/><line x1="45" y1="80" x2="45" y2="220" stroke="black" stroke-width="2"/><circle cx="52" cy="140" r="3" fill="black"/><circle cx="52" cy="160" r="3" fill="black"/><rect x="35" y="55" width="24" height="24" class="rehearsal-box"/><text x="47" y="68" class="rehearsal-text">A</text><text x="55" y="150" class="time-sig">4</text><text x="55" y="180" class="time-sig">4</text><text x="45" y="165"><tspan class="chord-root">D</tspan><tspan class="chord-suffix" dy="-15">-</tspan></text><text x="155" y="165"><tspan class="chord-root">D</tspan><tspan class="chord-suffix" dy="-15">-</tspan><tspan class="chord-bass" dy="15">/C</tspan></text><line x1="260" y1="80" x2="260" y2="220" stroke="black" stroke-width="2"/><text x="265" y="165"><tspan class="chord-root">B</tspan><tspan class="chord-suffix" dy="-15">ø7</tspan></text><text x="375" y="165"><tspan class="chord-root">B♭</tspan><tspan class="chord-suffix" dy="-15">7</tspan></text><text x="375" y="130" style="font-size: 14px; fill: #666; font-weight: bold; font-family: Arial;">A7♭9</text><line x1="480" y1="80" x2="480" y2="220" stroke="black" stroke-width="2"/><text x="485" y="165"><tspan class="chord-root">D</tspan><tspan class="chord-suffix" dy="-15">-</tspan><tspan class="chord-bass" dy="15">/A</tspan></text><text x="595" y="165"><tspan class="chord-root">G</tspan><tspan class="chord-suffix" dy="-15">-7</tspan></text><line x1="700" y1="80" x2="700" y2="220" stroke="black" stroke-width="2"/><text x="705" y="165"><tspan class="chord-root">D</tspan><tspan class="chord-suffix" dy="-15">-</tspan><tspan class="chord-bass" dy="15">/F</tspan></text><text x="815" y="165"><tspan class="chord-root">E</tspan><tspan class="chord-suffix" dy="-15">ø</tspan></text><text x="870" y="165"><tspan class="chord-root">A</tspan><tspan class="chord-suffix" dy="-15">7</tspan></text><line x1="40" y1="280" x2="40" y2="420" stroke="black" stroke-width="2"/><line x1="40" y1="480" x2="40" y2="620" stroke="black" stroke-width="2"/><text x="45" y="565"><tspan class="chord-root">D</tspan><tspan class="chord-suffix" dy="-15">-</tspan></text><text x="155" y="565"><tspan class="chord-root">D</tspan><tspan class="chord-suffix" dy="-15">-</tspan><tspan class="chord-bass" dy="15">/C</tspan></text><line x1="260" y1="480" x2="260" y2="620" stroke="black" stroke-width="2"/><text x="265" y="565"><tspan class="chord-root">B</tspan><tspan class="chord-suffix" dy="-15">ø7</tspan></text><text x="375" y="565"><tspan class="chord-root">B♭</tspan><tspan class="chord-suffix" dy="-15">7</tspan></text><text x="375" y="530" style="font-size: 14px; fill: #666; font-weight: bold; font-family: Arial;">A7♭9</text><line x1="480" y1="480" x2="480" y2="620" stroke="black" stroke-width="2"/><text x="485" y="565"><tspan class="chord-root">D</tspan><tspan class="chord-suffix" dy="-15">-</tspan><tspan class="chord-bass" dy="15">/A</tspan></text><text x="595" y="565"><tspan class="chord-root">G</tspan><tspan class="chord-suffix" dy="-15">-7</tspan></text><line x1="700" y1="480" x2="700" y2="620" stroke="black" stroke-width="2"/><polyline points="700,495 700,480 920,480" fill="none" stroke="black" stroke-width="2"/><text x="705" y="492" style="font-size: 12px; font-weight: bold;">1.</text><text x="705" y="565"><tspan class="chord-root">D</tspan><tspan class="chord-suffix" dy="-15">-</tspan><tspan class="chord-bass" dy="15">/F</tspan></text><text x="815" y="565"><tspan class="chord-root">E</tspan><tspan class="chord-suffix" dy="-15">ø</tspan></text><text x="870" y="565"><tspan class="chord-root">A</tspan><tspan class="chord-suffix" dy="-15">7</tspan></text><text x="45" y="765"><tspan class="chord-root">}</tspan></text><line x1="40" y1="880" x2="40" y2="1020" stroke="black" stroke-width="2"/><polyline points="40,895 40,880 260,880" fill="none" stroke="black" stroke-width="2"/><text x="45" y="892" style="font-size: 12px; font-weight: bold;">2.</text><text x="45" y="965"><tspan class="chord-root">D</tspan><tspan class="chord-suffix" dy="-15">-</tspan></text><text x="100" y="965"><tspan class="chord-root">G</tspan><tspan class="chord-suffix" dy="-15">-</tspan></text><text x="155" y="965"><tspan class="chord-root">D</tspan><tspan class="chord-suffix" dy="-15">-</tspan></text><line x1="255" y1="880" x2="255" y2="1020" stroke="black" stroke-width="2"/><line x1="260" y1="880" x2="260" y2="1020" stroke="black" stroke-width="6"/><line x1="260" y1="880" x2="260" y2="1020" stroke="black" stroke-width="6"/><line x1="265" y1="880" x2="265" y2="1020" stroke="black" stroke-width="2"/><rect x="255" y="855" width="24" height="24" class="rehearsal-box"/><text x="267" y="868" class="rehearsal-text">B</text><text x="265" y="965"><tspan class="chord-root">C</tspan><tspan class="chord-suffix" dy="-15">-7</tspan></text><text x="375" y="965"><tspan class="chord-root">F</tspan><tspan class="chord-suffix" dy="-15">7</tspan></text><line x1="480" y1="880" x2="480" y2="1020" stroke="black" stroke-width="2"/><text x="485" y="965"><tspan class="chord-root">B♭</tspan><tspan class="chord-suffix" dy="-15">Δ7</tspan></text><line x1="590" y1="880" x2="590" y2="1020" stroke="black" stroke-width="2"/><text x="595" y="965"><tspan class="chord-root">C</tspan><tspan class="chord-suffix" dy="-15">-7</tspan></text><text x="705" y="965"><tspan class="chord-root">F</tspan><tspan class="chord-suffix" dy="-15">7</tspan></text><line x1="810" y1="880" x2="810" y2="1020" stroke="black" stroke-width="2"/><text x="815" y="965"><tspan class="chord-root">B♭</tspan><tspan class="chord-suffix" dy="-15">Δ7</tspan></text><text x="45" y="1165" class="nc">N.C.</text><line x1="150" y1="1080" x2="150" y2="1220" stroke="black" stroke-width="2"/><line x1="150" y1="1080" x2="150" y2="1220" stroke="black" stroke-width="2"/><text x="155" y="1165"><tspan class="chord-root">C</tspan><tspan class="chord-suffix" dy="-15">-7</tspan></text><text x="265" y="1165"><tspan class="chord-root">F</tspan><tspan class="chord-suffix" dy="-15">7</tspan></text><line x1="370" y1="1080" x2="370" y2="1220" stroke="black" stroke-width="2"/><text x="375" y="1165"><tspan class="chord-root">B♭</tspan><tspan class="chord-suffix" dy="-15">Δ7</tspan></text><line x1="480" y1="1080" x2="480" y2="1220" stroke="black" stroke-width="2"/><text x="485" y="1165"><tspan class="chord-root">B</tspan><tspan class="chord-suffix" dy="-15">-7</tspan></text><text x="595" y="1165"><tspan class="chord-root">E</tspan><tspan class="chord-suffix" dy="-15">7</tspan></text><line x1="700" y1="1080" x2="700" y2="1220" stroke="black" stroke-width="2"/><text x="705" y="1165"><tspan class="chord-root">A</tspan><tspan class="chord-suffix" dy="-15">7</tspan></text><text x="760" y="1165"><tspan class="chord-root">p</tspan></text><text x="815" y="1165"><tspan class="chord-root">p</tspan></text><text x="870" y="1165"><tspan class="chord-root">p</tspan></text><line x1="35" y1="1280" x2="35" y2="1420" stroke="black" stroke-width="2"/><line x1="40" y1="1280" x2="40" y2="1420" stroke="black" stroke-width="6"/><line x1="40" y1="1280" x2="40" y2="1420" stroke="black" stroke-width="6"/><line x1="45" y1="1280" x2="45" y2="1420" stroke="black" stroke-width="2"/><rect x="35" y="1255" width="24" height="24" class="rehearsal-box"/><text x="47" y="1268" class="rehearsal-text">A</text><text x="45" y="1365"><tspan class="chord-root">D</tspan><tspan class="chord-suffix" dy="-15">-</tspan></text><text x="155" y="1365"><tspan class="chord-root">D</tspan><tspan class="chord-suffix" dy="-15">-</tspan><tspan class="chord-bass" dy="15">/C</tspan></text><line x1="260" y1="1280" x2="260" y2="1420" stroke="black" stroke-width="2"/><text x="265" y="1365"><tspan class="chord-root">B</tspan><tspan class="chord-suffix" dy="-15">ø7</tspan></text><text x="375" y="1365"><tspan class="chord-root">B♭</tspan><tspan class="chord-suffix" dy="-15">7</tspan></text><text x="375" y="1330" style="font-size: 14px; fill: #666; font-weight: bold; font-family: Arial;">A7♭9</text><line x1="480" y1="1280" x2="480" y2="1420" stroke="black" stroke-width="2"/><text x="485" y="1365"><tspan class="chord-root">D</tspan><tspan class="chord-suffix" dy="-15">-</tspan><tspan class="chord-bass" dy="15">/A</tspan></text><text x="595" y="1365"><tspan class="chord-root">G</tspan><tspan class="chord-suffix" dy="-15">-7</tspan></text><line x1="700" y1="1280" x2="700" y2="1420" stroke="black" stroke-width="2"/><text x="705" y="1365"><tspan class="chord-root">D</tspan><tspan class="chord-suffix" dy="-15">-</tspan><tspan class="chord-bass" dy="15">/F</tspan></text><text x="815" y="1365"><tspan class="chord-root">E</tspan><tspan class="chord-suffix" dy="-15">ø</tspan></text><text x="870" y="1365"><tspan class="chord-root">A</tspan><tspan class="chord-suffix" dy="-15">7</tspan></text><line x1="40" y1="1480" x2="40" y2="1620" stroke="black" stroke-width="2"/><line x1="40" y1="1480" x2="40" y2="1620" stroke="black" stroke-width="2"/><text x="45" y="1565"><tspan class="chord-root">D</tspan><tspan class="chord-suffix" dy="-15">-</tspan></text><text x="155" y="1565"><tspan class="chord-root">D</tspan><tspan class="chord-suffix" dy="-15">-</tspan><tspan class="chord-bass" dy="15">/C</tspan></text><line x1="260" y1="1480" x2="260" y2="1620" stroke="black" stroke-width="2"/><text x="265" y="1565"><tspan class="chord-root">B</tspan><tspan class="chord-suffix" dy="-15">ø7</tspan></text><text x="375" y="1565"><tspan class="chord-root">B♭</tspan><tspan class="chord-suffix" dy="-15">7</tspan></text><text x="375" y="1530" style="font-size: 14px; fill: #666; font-weight: bold; font-family: Arial;">A7♭9</text><line x1="480" y1="1480" x2="480" y2="1620" stroke="black" stroke-width="2"/><text x="485" y="1565"><tspan class="chord-root">D</tspan><tspan class="chord-suffix" dy="-15">-</tspan><tspan class="chord-bass" dy="15">/A</tspan></text><text x="595" y="1565"><tspan class="chord-root">G</tspan><tspan class="chord-suffix" dy="-15">-7</tspan></text><line x1="700" y1="1480" x2="700" y2="1620" stroke="black" stroke-width="2"/><text x="705" y="1565"><tspan class="chord-root">D</tspan><tspan class="chord-suffix" dy="-15">-</tspan><tspan class="chord-bass" dy="15">/F</tspan></text><text x="815" y="1565"><tspan class="chord-root">E</tspan><tspan class="chord-suffix" dy="-15">ø</tspan></text><text x="870" y="1565"><tspan class="chord-root">A</tspan><tspan class="chord-suffix" dy="-15">7</tspan></text><line x1="35" y1="1680" x2="35" y2="1820" stroke="black" stroke-width="2"/><line x1="40" y1="1680" x2="40" y2="1820" stroke="black" stroke-width="6"/></svg>