<svg xmlns="http://www.w3.org/2000/svg" width="960" height="1540" viewBox="0 0 960 1540" style="background-color: #FDF6E3; font-family: 'Arial', sans-serif;">
                <defs>
                   <style>
                        .title { font-size: 28px; font-weight: bold; text-anchor: middle; fill: #000000; }
                        .composer { font-size: 18px; text-anchor: end; fill: #000000; }
                        .style { font-size: 18px; text-anchor: start; fill: #000000; }
                        .chord-root { font-size: 32px; font-weight: bold; fill: #000000; letter-spacing: -1px; }
                        .chord-suffix { font-size: 18px; font-weight: bold; fill: #000000; }
                        .chord-bass { font-size: 22px; font-weight: bold; fill: #000000; }
                        .nc { font-size: 24px; font-weight: bold; fill: #000000; }
                        .time-sig { font-size: 24px; font-weight: bold; text-anchor: middle; letter-spacing: -2px; }
                        .anno-text { font-size: 14px; fill: #555; }
                   </style>
                </defs>
                <g class="header" transform="translate(0, 45)">
                    <text x="480" class="title">A Walkin Thing</text>
                    <text x="920" class="composer">Benny Carter</text>
                    <text x="40" class="style">Medium Swing</text>
                </g>
                <g transform="translate(40, 80)">
            <g class="system" transform="translate(0, 0)"><g class="measure" transform="translate(0, 0)"><line x1="0" y1="0" x2="0" y2="140" stroke="black" stroke-width="6"/><line x1="6" y1="0" x2="6" y2="140" stroke="black" stroke-width="2"/><circle cx="14" cy="60" r="3" fill="black"/><circle cx="14" cy="80" r="3" fill="black"/><line x1="220" y1="0" x2="220" y2="140" stroke="black" stroke-width="2"/><rect x="-5" y="-35" width="24" height="24" fill="black"/><text x="7" y="-18" fill="white" font-weight="bold" font-size="18" text-anchor="middle">A</text><text x="-15" y="66" class="time-sig">4</text><text x="-15" y="91" class="time-sig">4</text><text x="5" y="85"><tspan class="chord-root">D</tspan><tspan class="chord-suffix" dy="4">-</tspan></text><text x="115" y="85"><tspan class="chord-root">D</tspan><tspan class="chord-suffix" dy="4">-</tspan><tspan class="chord-bass" dy="-4">/C</tspan></text></g><g class="measure" transform="translate(220, 0)"><line x1="0" y1="0" x2="0" y2="140" stroke="black" stroke-width="2"/><line x1="220" y1="0" x2="220" y2="140" stroke="black" stroke-width="2"/><text x="5" y="85"><tspan class="chord-root">B</tspan><tspan class="chord-suffix" dy="4">ø7</tspan></text><text x="115" y="85"><tspan class="chord-root">B♭</tspan><tspan class="chord-suffix" dy="4">7</tspan></text><text x="115" y="50" style="font-size: 14px; fill: #666; font-weight: bold;">A7♭9</text></g><g class="measure" transform="translate(440, 0)"><line x1="0" y1="0" x2="0" y2="140" stroke="black" stroke-width="2"/><line x1="220" y1="0" x2="220" y2="140" stroke="black" stroke-width="2"/><text x="5" y="85"><tspan class="chord-root">D</tspan><tspan class="chord-suffix" dy="4">-</tspan><tspan class="chord-bass" dy="-4">/A</tspan></text><text x="115" y="85"><tspan class="chord-root">G</tspan><tspan class="chord-suffix" dy="4">-7</tspan></text></g><g class="measure" transform="translate(660, 0)"><line x1="0" y1="0" x2="0" y2="140" stroke="black" stroke-width="2"/><line x1="220" y1="0" x2="220" y2="140" stroke="black" stroke-width="2"/><text x="5" y="85"><tspan class="chord-root">D</tspan><tspan class="chord-suffix" dy="4">-</tspan><tspan class="chord-bass" dy="-4">/F</tspan></text><text x="115" y="85"><tspan class="chord-root">E</tspan><tspan class="chord-suffix" dy="4">ø</tspan></text><text x="170" y="85"><tspan class="chord-root">A</tspan><tspan class="chord-suffix" dy="4">7</tspan></text></g></g><g class="system" transform="translate(0, 200)"><g class="measure" transform="translate(0, 0)"><line x1="0" y1="0" x2="0" y2="140" stroke="black" stroke-width="2"/><line x1="220" y1="0" x2="220" y2="140" stroke="black" stroke-width="2"/><text x="5" y="85"><tspan class="chord-root">D</tspan><tspan class="chord-suffix" dy="4">-</tspan></text><text x="115" y="85"><tspan class="chord-root">D</tspan><tspan class="chord-suffix" dy="4">-</tspan><tspan class="chord-bass" dy="-4">/C</tspan></text></g><g class="measure" transform="translate(220, 0)"><line x1="0" y1="0" x2="0" y2="140" stroke="black" stroke-width="2"/><line x1="220" y1="0" x2="220" y2="140" stroke="black" stroke-width="2"/><text x="5" y="85"><tspan class="chord-root">B</tspan><tspan class="chord-suffix" dy="4">ø7</tspan></text><text x="115" y="85"><tspan class="chord-root">B♭</tspan><tspan class="chord-suffix" dy="4">7</tspan></text><text x="115" y="50" style="font-size: 14px; fill: #666; font-weight: bold;">A7♭9</text></g><g class="measure" transform="translate(440, 0)"><line x1="0" y1="0" x2="0" y2="140" stroke="black" stroke-width="2"/><line x1="220" y1="0" x2="220" y2="140" stroke="black" stroke-width="2"/><text x="5" y="85"><tspan class="chord-root">D</tspan><tspan class="chord-suffix" dy="4">-</tspan><tspan class="chord-bass" dy="-4">/A</tspan></text><text x="115" y="85"><tspan class="chord-root">G</tspan><tspan class="chord-suffix" dy="4">-7</tspan></text></g><g class="measure" transform="translate(660, 0)"><line x1="0" y1="0" x2="0" y2="140" stroke="black" stroke-width="2"/><polyline points="0,15 0,0 220,0" fill="none" stroke="black" stroke-width="2"/><text x="5" y="12" font-size="12" font-weight="bold">1.</text><text x="5" y="85"><tspan class="chord-root">D</tspan><tspan class="chord-suffix" dy="4">-</tspan><tspan class="chord-bass" dy="-4">/F</tspan></text><text x="93" y="85"><tspan class="chord-root">E</tspan><tspan class="chord-suffix" dy="4">ø</tspan></text><text x="137" y="85"><tspan class="chord-root">A</tspan><tspan class="chord-suffix" dy="4">7</tspan></text></g></g><g class="system" transform="translate(0, 400)"><g class="measure" transform="translate(0, 0)"><line x1="0" y1="0" x2="0" y2="140" stroke="black" stroke-width="2"/><line x1="214" y1="0" x2="214" y2="140" stroke="black" stroke-width="2"/><line x1="220" y1="0" x2="220" y2="140" stroke="black" stroke-width="6"/><polyline points="0,15 0,0 220,0" fill="none" stroke="black" stroke-width="2"/><text x="5" y="12" font-size="12" font-weight="bold">2.</text><text x="5" y="85"><tspan class="chord-root">D</tspan><tspan class="chord-suffix" dy="4">-</tspan></text><text x="60" y="85"><tspan class="chord-root">G</tspan><tspan class="chord-suffix" dy="4">-</tspan></text><text x="115" y="85"><tspan class="chord-root">D</tspan><tspan class="chord-suffix" dy="4">-</tspan></text></g><g class="measure" transform="translate(220, 0)"><line x1="0" y1="0" x2="0" y2="140" stroke="black" stroke-width="6"/><line x1="6" y1="0" x2="6" y2="140" stroke="black" stroke-width="2"/><line x1="220" y1="0" x2="220" y2="140" stroke="black" stroke-width="2"/><rect x="-5" y="-35" width="24" height="24" fill="black"/><text x="7" y="-18" fill="white" font-weight="bold" font-size="18" text-anchor="middle">B</text><text x="5" y="85"><tspan class="chord-root">C</tspan><tspan class="chord-suffix" dy="4">-7</tspan></text><text x="115" y="85"><tspan class="chord-root">F</tspan><tspan class="chord-suffix" dy="4">7</tspan></text></g><g class="measure" transform="translate(440, 0)"><line x1="0" y1="0" x2="0" y2="140" stroke="black" stroke-width="2"/><line x1="220" y1="0" x2="220" y2="140" stroke="black" stroke-width="2"/><text x="5" y="85"><tspan class="chord-root">B♭</tspan><tspan class="chord-suffix" dy="4">Δ7</tspan></text></g><g class="measure" transform="translate(660, 0)"><line x1="0" y1="0" x2="0" y2="140" stroke="black" stroke-width="2"/><line x1="220" y1="0" x2="220" y2="140" stroke="black" stroke-width="2"/><text x="5" y="85"><tspan class="chord-root">C</tspan><tspan class="chord-suffix" dy="4">-7</tspan></text><text x="115" y="85"><tspan class="chord-root">F</tspan><tspan class="chord-suffix" dy="4">7</tspan></text></g></g><g class="system" transform="translate(0, 600)"><g class="measure" transform="translate(0, 0)"><line x1="0" y1="0" x2="0" y2="140" stroke="black" stroke-width="2"/><line x1="220" y1="0" x2="220" y2="140" stroke="black" stroke-width="2"/><text x="5" y="85"><tspan class="chord-root">B♭</tspan><tspan class="chord-suffix" dy="4">Δ7</tspan></text><text x="115" y="85" class="nc">N.C.</text></g><g class="measure" transform="translate(220, 0)"><line x1="0" y1="0" x2="0" y2="140" stroke="black" stroke-width="2"/><line x1="220" y1="0" x2="220" y2="140" stroke="black" stroke-width="2"/><text x="5" y="85"><tspan class="chord-root">C</tspan><tspan class="chord-suffix" dy="4">-7</tspan></text><text x="115" y="85"><tspan class="chord-root">F</tspan><tspan class="chord-suffix" dy="4">7</tspan></text></g><g class="measure" transform="translate(440, 0)"><line x1="0" y1="0" x2="0" y2="140" stroke="black" stroke-width="2"/><line x1="220" y1="0" x2="220" y2="140" stroke="black" stroke-width="2"/><text x="5" y="85"><tspan class="chord-root">B♭</tspan><tspan class="chord-suffix" dy="4">Δ7</tspan></text></g><g class="measure" transform="translate(660, 0)"><line x1="0" y1="0" x2="0" y2="140" stroke="black" stroke-width="2"/><line x1="220" y1="0" x2="220" y2="140" stroke="black" stroke-width="2"/><text x="5" y="85"><tspan class="chord-root">B</tspan><tspan class="chord-suffix" dy="4">-7</tspan></text><text x="115" y="85"><tspan class="chord-root">E</tspan><tspan class="chord-suffix" dy="4">7</tspan></text></g></g><g class="system" transform="translate(0, 800)"><g class="measure" transform="translate(0, 0)"><line x1="0" y1="0" x2="0" y2="140" stroke="black" stroke-width="2"/><line x1="214" y1="0" x2="214" y2="140" stroke="black" stroke-width="2"/><line x1="220" y1="0" x2="220" y2="140" stroke="black" stroke-width="6"/><text x="5" y="85"><tspan class="chord-root">A</tspan><tspan class="chord-suffix" dy="4">7</tspan></text><text x="60" y="85"><tspan class="chord-root">p</tspan></text><text x="115" y="85"><tspan class="chord-root">p</tspan></text><text x="170" y="85"><tspan class="chord-root">p</tspan></text></g><g class="measure" transform="translate(220, 0)"><line x1="0" y1="0" x2="0" y2="140" stroke="black" stroke-width="6"/><line x1="6" y1="0" x2="6" y2="140" stroke="black" stroke-width="2"/><line x1="220" y1="0" x2="220" y2="140" stroke="black" stroke-width="2"/><rect x="-5" y="-35" width="24" height="24" fill="black"/><text x="7" y="-18" fill="white" font-weight="bold" font-size="18" text-anchor="middle">A</text><text x="5" y="85"><tspan class="chord-root">D</tspan><tspan class="chord-suffix" dy="4">-</tspan></text><text x="115" y="85"><tspan class="chord-root">D</tspan><tspan class="chord-suffix" dy="4">-</tspan><tspan class="chord-bass" dy="-4">/C</tspan></text></g><g class="measure" transform="translate(440, 0)"><line x1="0" y1="0" x2="0" y2="140" stroke="black" stroke-width="2"/><line x1="220" y1="0" x2="220" y2="140" stroke="black" stroke-width="2"/><text x="5" y="85"><tspan class="chord-root">B</tspan><tspan class="chord-suffix" dy="4">ø7</tspan></text><text x="115" y="85"><tspan class="chord-root">B♭</tspan><tspan class="chord-suffix" dy="4">7</tspan></text><text x="115" y="50" style="font-size: 14px; fill: #666; font-weight: bold;">A7♭9</text></g><g class="measure" transform="translate(660, 0)"><line x1="0" y1="0" x2="0" y2="140" stroke="black" stroke-width="2"/><line x1="220" y1="0" x2="220" y2="140" stroke="black" stroke-width="2"/><text x="5" y="85"><tspan class="chord-root">D</tspan><tspan class="chord-suffix" dy="4">-</tspan><tspan class="chord-bass" dy="-4">/A</tspan></text><text x="115" y="85"><tspan class="chord-root">G</tspan><tspan class="chord-suffix" dy="4">-7</tspan></text></g></g><g class="system" transform="translate(0, 1000)"><g class="measure" transform="translate(0, 0)"><line x1="0" y1="0" x2="0" y2="140" stroke="black" stroke-width="2"/><line x1="220" y1="0" x2="220" y2="140" stroke="black" stroke-width="2"/><text x="5" y="85"><tspan class="chord-root">D</tspan><tspan class="chord-suffix" dy="4">-</tspan><tspan class="chord-bass" dy="-4">/F</tspan></text><text x="115" y="85"><tspan class="chord-root">E</tspan><tspan class="chord-suffix" dy="4">ø</tspan></text><text x="170" y="85"><tspan class="chord-root">A</tspan><tspan class="chord-suffix" dy="4">7</tspan></text></g><g class="measure" transform="translate(220, 0)"><line x1="0" y1="0" x2="0" y2="140" stroke="black" stroke-width="2"/><line x1="220" y1="0" x2="220" y2="140" stroke="black" stroke-width="2"/><text x="5" y="85"><tspan class="chord-root">D</tspan><tspan class="chord-suffix" dy="4">-</tspan></text><text x="115" y="85"><tspan class="chord-root">D</tspan><tspan class="chord-suffix" dy="4">-</tspan><tspan class="chord-bass" dy="-4">/C</tspan></text></g><g class="measure" transform="translate(440, 0)"><line x1="0" y1="0" x2="0" y2="140" stroke="black" stroke-width="2"/><line x1="220" y1="0" x2="220" y2="140" stroke="black" stroke-width="2"/><text x="5" y="85"><tspan class="chord-root">B</tspan><tspan class="chord-suffix" dy="4">ø7</tspan></text><text x="115" y="85"><tspan class="chord-root">B♭</tspan><tspan class="chord-suffix" dy="4">7</tspan></text><text x="115" y="50" style="font-size: 14px; fill: #666; font-weight: bold;">A7♭9</text></g><g class="measure" transform="translate(660, 0)"><line x1="0" y1="0" x2="0" y2="140" stroke="black" stroke-width="2"/><line x1="220" y1="0" x2="220" y2="140" stroke="black" stroke-width="2"/><text x="5" y="85"><tspan class="chord-root">D</tspan><tspan class="chord-suffix" dy="4">-</tspan><tspan class="chord-bass" dy="-4">/A</tspan></text><text x="115" y="85"><tspan class="chord-root">G</tspan><tspan class="chord-suffix" dy="4">-7</tspan></text></g></g><g class="system" transform="translate(0, 1200)"><g class="measure" transform="translate(0, 0)"><line x1="0" y1="0" x2="0" y2="140" stroke="black" stroke-width="2"/><line x1="214" y1="0" x2="214" y2="140" stroke="black" stroke-width="2"/><line x1="220" y1="0" x2="220" y2="140" stroke="black" stroke-width="6"/><text x="5" y="85"><tspan class="chord-root">D</tspan><tspan class="chord-suffix" dy="4">-</tspan><tspan class="chord-bass" dy="-4">/F</tspan></text><text x="115" y="85"><tspan class="chord-root">E</tspan><tspan class="chord-suffix" dy="4">ø</tspan></text><text x="170" y="85"><tspan class="chord-root">A</tspan><tspan class="chord-suffix" dy="4">7</tspan></text></g></g></g></svg>